<svg xmlns="http://www.w3.org/2000/svg" viewBox="0 0 80.96 113.1"><defs></defs><title>emirates-logo</title><g id="Слой_2" data-name="Слой 2"><g id="Layer_1" data-name="Layer 1"><rect class="cls-1" width="80.96" height="113.1"/><path class="cls-2" d="M47.75,53.6c-.18.17-2.79,2.53-3,2.79a4.17,4.17,0,0,0-.89,2.54c0,.31,0,7.71,0,8a3,3,0,0,1-.63,1.65L41.66,70l.69,0c.23-.22,2.6-2.32,2.84-2.6a4.05,4.05,0,0,0,1.09-2.75c0-.34,0-7.36,0-7.67a3,3,0,0,1,.81-2.1c.28-.32,1.22-1.09,1.38-1.27Z"/><path class="cls-2" d="M48.2,74.1v3.18s.93,1,1.11,1.16c.86.91.85,2.58-1.87,5.23a5.55,5.55,0,0,1-3.71,1.75H38.86L41.76,88H43.7a7.11,7.11,0,0,0,5-2,5.92,5.92,0,0,0,1.63-4.28V77.48A3.32,3.32,0,0,0,49.17,75l-1-.93"/><path class="cls-2" d="M52.55,72.28a1.49,1.49,0,0,1-.87-.4,10.06,10.06,0,0,1-1-1.14,1.75,1.75,0,0,1,1.15-.36,1,1,0,0,1,.83.29c.6.82.46,1.61-.13,1.61M29.24,63.6h-1a2.64,2.64,0,0,1,1.07,2.07V69.6c0,1.05.78,5,4.32,5H43.8s0,6.24,0,6.51a2.8,2.8,0,0,1-.64,2c-.27.28-1.57,1.46-1.57,1.46h.73c.3-.22,2.53-2.26,2.74-2.49a4,4,0,0,0,1.2-3.25V74.64s.9-1,1.17-1.19,2-1.89,2-1.89c0,1.61.77,2.32,1.56,2.32a1.5,1.5,0,0,0,1-.44l1.84-1.71c.82-.82,1.28-3.36-.72-3.36h0c-1.22,0-2.67,1.77-2.83,2a4.19,4.19,0,0,1-.86-.9V71a2.4,2.4,0,0,1-1.61.86H46.29V70.3a3.19,3.19,0,0,1,.63-1.91c.27-.29,1.46-1.36,1.57-1.46h-.73c-.28.22-2.75,2.48-3.06,2.83a4.42,4.42,0,0,0-.88,2.1H32.31a2.59,2.59,0,0,1-2.37-2.62c0-.15,0-3,0-3,0-2.41-.63-2.66-.74-2.71"/><path class="cls-2" d="M36.52,75.77l-1.94,1.94c1.32,1.33,1.77,2,1.9,2.59.1-.11,1.88-1.58,1.88-2.14,0-.81-.54-1.09-1.84-2.39"/><path class="cls-2" d="M33.83,67.73a4.5,4.5,0,0,0,1.13-1l3.46-3.57a23.53,23.53,0,0,1,2.52,3c.29.51.62,1.54-1,1.54ZM40.6,53.57l-1.32,1.32c-.53.52-.38,1.64.71,2.73,0,0,0,2,0,2.74a.9.9,0,0,1-.23.5,5.69,5.69,0,0,0-3-1.44H34.6A4,4,0,0,0,32,60.76a2.07,2.07,0,0,0-.14,2.68l1.49,1.49a13.79,13.79,0,0,1,0-4.09,1.1,1.1,0,0,1,1-.76.83.83,0,0,1,.47.14,33.54,33.54,0,0,1,3.05,2.51L33.84,67a2.24,2.24,0,0,1-1.24.57h0a1.47,1.47,0,0,1-1.21-.68s0,1.83,0,2c0,.66.87,1.32,1.72,1.32h5.4a1.69,1.69,0,0,0,1.19-.44c.23-.2,1.68-1.66,1.82-1.81a1.45,1.45,0,0,0,.38-1v-2a5.64,5.64,0,0,0-1.56-3.55s.31-.24.34-1.09V58.12s.64.61.68.87l1.13-1.15c.5-.51-.33-1.56-.72-2a3.54,3.54,0,0,1-1.13-2.32"/><path class="cls-2" d="M28,72.26H27a2.4,2.4,0,0,1,1.07,2.11v4.85a6.07,6.07,0,0,0,5.77,6.08h2.64a3.82,3.82,0,0,0,3.1-1.24c.35-.31.81-.82,1-1a3.37,3.37,0,0,0,1.14-2.75V78.72a2.91,2.91,0,0,0-1.18-2.33l-.92-.89v3.25a12.64,12.64,0,0,0,1,.94,1.67,1.67,0,0,1-1,3H33.71a5.14,5.14,0,0,1-4.94-5.06V75c0-2.71-.74-2.71-.74-2.71"/><path class="cls-2" d="M32.55,75.78l-1.94,1.94c1.32,1.32,1.77,2,1.89,2.58.11-.1,1.88-1.58,1.88-2.13,0-.81-.53-1.09-1.83-2.39"/><path class="cls-2" d="M12.59,88H5.89A4,4,0,0,1,7,91l0,8.13c0,2,.82,2.1.82,2.1h6.61a1.83,1.83,0,0,0,2-1.66l0-.78s-.48,1-2.45,1H11c-1,0-.9-.81-1-1.51V93.77h1.45l.83,0a4.24,4.24,0,0,1,2.15.48,3.22,3.22,0,0,0-3-1.81H10V91a3.84,3.84,0,0,0-.3-1.61h2.05c1.78,0,3.15,0,4.58.93,0,0-.28-2.35-3.71-2.35"/><path class="cls-2" d="M23.06,90.57a2.83,2.83,0,0,0-2.69,2s-.05-2-1.77-2H16.91s1,.4,1,2.11v6.31c0,2.08.84,2.12.84,2.12h2.78A2.72,2.72,0,0,1,20.44,99v-5.6a1.59,1.59,0,0,1,1.66-1.09,1.55,1.55,0,0,1,1.41,1.5v5.21c0,2.11.83,2.12.83,2.12h2.8A2.78,2.78,0,0,1,26.06,99v-5.6a1.57,1.57,0,0,1,3.06.43s0,4.75,0,5.19c0,2.09.8,2.11.83,2.11h2.8a2.72,2.72,0,0,1-1.07-2.12V93.37c0-2.2-1.8-2.79-3.14-2.79a2.73,2.73,0,0,0-2.54,2,3,3,0,0,0-2.92-2"/><path class="cls-2" d="M34.7,90.63H33s1,.43,1,2.1v6.33h0c0,2.09.83,2.1.85,2.1h2.79a2.68,2.68,0,0,1-1.08-2.13h0V93c0-2.37-1.24-2.37-1.84-2.37"/><path class="cls-2" d="M39.7,90.62H38s1,.4,1,2.1v6.32c0,2.09.84,2.12.84,2.12h2.78A2.68,2.68,0,0,1,41.55,99V93.86a1.49,1.49,0,0,1,.68-1.07,2.25,2.25,0,0,1,1.22-.36,2.13,2.13,0,0,1,1.67.79V91.43a1.4,1.4,0,0,0-1.43-.76c-1.74,0-2.17,2.08-2.17,2.08-.14-1.64-.58-2.13-1.82-2.13"/><path class="cls-2" d="M57.42,88.22a8.47,8.47,0,0,1-1.87,2.1,16,16,0,0,1-2.45,1.45l1.77,0v7.34c0,2,.85,2,.85,2h2.78a2.63,2.63,0,0,1-1.07-2.06V91.81h.69a3.55,3.55,0,0,1,1.64.41V90.63H57.42Z"/><path class="cls-2" d="M62.63,96.43s-.35-4.87,1.48-5h.12c1.44,0,1.08,2.08.63,2.91-.7,1.3-1.62,1.43-2.23,2.1m1.67-5.85h0c-2.89,0-4.41,2.68-4.41,5.55s1.87,5.06,4.6,5.06c2.27,0,3-.83,3-.83v-1.7A2.39,2.39,0,0,1,65.34,100a2.49,2.49,0,0,1-2.54-2.45c1-1.2,2.21-.94,3.77-2.57,2.05-2.14.53-4.42-2.27-4.42"/><path class="cls-2" d="M35.25,87.24a1.27,1.27,0,1,0,1.3,1.27,1.28,1.28,0,0,0-1.3-1.27"/><path class="cls-2" d="M48,100a1.25,1.25,0,0,1-1.09-1.34c0-2.63,2.15-3,2.73-3.69v4.43A1.92,1.92,0,0,1,48,100M49,90.62a4.57,4.57,0,0,0-2.62.78v1.83a2.35,2.35,0,0,1,2-1.45c1.42,0,1.52.7,1.51,1.06a1.5,1.5,0,0,1-.21,1.09C49,95.07,44,95.31,44.75,99.2a2.32,2.32,0,0,0,2.63,2,2.52,2.52,0,0,0,2.33-1.27c.19,1.17.78,1.24.78,1.24h2.78a2.66,2.66,0,0,1-1.08-2.11V93.14c0-1.41-1.57-2.52-3.24-2.52"/><path class="cls-2" d="M71.77,90.56c-1.67,0-3.19,1.1-3.16,2.52a3.33,3.33,0,0,0,1.57,2.8,12.56,12.56,0,0,0,1.44.9,1.81,1.81,0,0,1,1.11,1.53A1.87,1.87,0,0,1,70.66,100a2.37,2.37,0,0,1-2-1.49v1.88a4.9,4.9,0,0,0,2.65.75,3.66,3.66,0,0,0,3.79-3.46,3.18,3.18,0,0,0-.65-1.84,9.79,9.79,0,0,0-2.73-2,1.77,1.77,0,0,1-.8-1.09c0-.35.16-1.07,1.58-1.07a2.35,2.35,0,0,1,2,1.46V91.4a4.6,4.6,0,0,0-2.66-.84"/></g></g></svg>