<svg xmlns="http://www.w3.org/2000/svg" viewBox="0 0 99.08 151.48"><defs><style>.cls-1{fill:#fff;}</style></defs><title>palm</title><g id="Слой_2" data-name="Слой 2"><g id="palm"><path class="cls-1" d="M98.69,41.29c-.28-.48-6.92-11.84-21-13.5-3.6-.42-7.88.45-12.81,2.6A134.82,134.82,0,0,0,80.09,4.14a3,3,0,0,0-3-4.13C66.38.85,57.85,5,51.74,12.34c-4.85,5.81-7.07,14.19-8.1,20.91-2.7-4.52-6.36-9.4-10.63-11.84-11.54-6.59-22.18-2.75-31.25,1.38a3,3,0,0,0-.66,5.05c.3.25,6.83,5.48,29.23,15.72C18.88,45.24,3.42,50.34.79,65.54A3,3,0,0,0,4,69c.67-.06,16.42-1.6,24.33-5.56a35.84,35.84,0,0,0,3.9-2.29c-1.72,3.76-3,7.61-3,10.87A37.85,37.85,0,0,0,35,92.49a3,3,0,0,0,5.18-.32l7.42-14.84a306.77,306.77,0,0,1,.88,58.47c-15.58,1.81-28.88,7.95-28.88,12.68a3,3,0,0,0,3,3h69a3,3,0,0,0,3-3,4.53,4.53,0,0,0-1.5-3.1c-2.6-2.59-12-7.67-25.72-9.46,0-.07,0-.15,0-.22-1.76-39.82-7.52-63.81-11.81-76.57,8.79,7.25,19.24,15.54,19.86,16A3,3,0,0,0,80.07,74c.12-.27,2.75-6.63-1.57-15.28-2-4-6-7-10.55-9.09,3-.22,6.08-.49,9-.86,12-1.49,19.42-3,19.73-3A3,3,0,0,0,98.81,44a3,3,0,0,0-.12-2.74M9.33,26.1c6.7-2.55,13.45-3.62,20.71.52,4.67,2.67,9,10.26,11.46,15.34C24.09,34.41,14.31,29.09,9.33,26.1m16.35,32C21.13,60.39,13,61.81,8,62.52c5.16-11.1,22.13-13.27,30.27-13.67-3.4,3-8.4,7.19-12.55,9.27M43.1,73l-5.6,11.2a33.38,33.38,0,0,1-2.22-12.11c0-5,4.71-13.19,8.37-18.69.59,8,.55,17.4-.55,19.6M49,39.47c.47-6.18,2.05-16.91,7.37-23.29A27.55,27.55,0,0,1,72.26,6.75C68.61,14.09,60.66,28.26,49,39.47m32.26,106H33.14a68.65,68.65,0,0,1,24-4.2h.26a66.64,66.64,0,0,1,23.85,4.2m-19.86-10.1c-1.3-.06-2.63-.1-4-.1h-.27q-1.28,0-2.55.06A315.78,315.78,0,0,0,53,71.94c3.44,13.53,7,34.08,8.36,63.44m11.75-74a17.42,17.42,0,0,1,1.77,5.66c-4.77-3.81-12.59-10.11-18.63-15.16,6.7,1.71,14.49,4.76,16.86,9.5m3.06-18.58c-7.83,1-16.88,1.31-22.8,1.42,12.07-8.83,19-10.54,22.48-10.54a8.83,8.83,0,0,1,1.09.06,22.56,22.56,0,0,1,13.71,7c-3.36.56-8.34,1.33-14.48,2.1"/></g></g></svg>