<svg xmlns="http://www.w3.org/2000/svg" viewBox="0 0 118.68 147.2"><defs><style>.cls-1{fill:#fff;}</style></defs><title>passport</title><g id="Слой_2" data-name="Слой 2"><g id="passport"><path class="cls-1" d="M54.34,25.21A38.23,38.23,0,0,0,16.29,60.39h-.13v6h.13a38.17,38.17,0,0,0,76.1,0h.13v-6h-.13a38.23,38.23,0,0,0-38-35.18m0,6C59,31.21,65.61,46,66.46,60.39H42.22C43.07,46,49.73,31.21,54.34,31.21M43.78,33c-4.49,7.5-7.05,18.91-7.55,27.39H22.31A32.24,32.24,0,0,1,43.78,33M22.31,66.39H36.23c.5,8.48,3.06,19.89,7.55,27.39A32.25,32.25,0,0,1,22.31,66.39m32,29.17c-4.61,0-11.27-14.8-12.12-29.17H66.46C65.61,80.76,59,95.56,54.34,95.56m10.55-1.78c4.5-7.5,7.06-18.91,7.56-27.39H86.37A32.25,32.25,0,0,1,64.89,93.78m7.56-33.39C72,51.91,69.39,40.5,64.89,33A32.24,32.24,0,0,1,86.37,60.39Z"/><path class="cls-1" d="M102.83,0H14.22A7.23,7.23,0,0,0,7,7.22V10a7.22,7.22,0,0,0-7,7.21V140a7.23,7.23,0,0,0,7.22,7.22h94.24a7.23,7.23,0,0,0,7.11-6h2.89a7.23,7.23,0,0,0,7.22-7.22V15.84A15.87,15.87,0,0,0,102.83,0m-.15,140a1.22,1.22,0,0,1-1.22,1.22H7.22A1.22,1.22,0,0,1,6,140V17.22A1.22,1.22,0,0,1,7.22,16h94.24a1.22,1.22,0,0,1,1.22,1.22Zm10-6a1.22,1.22,0,0,1-1.22,1.22h-2.78v-118A7.23,7.23,0,0,0,101.46,10H13V7.22A1.22,1.22,0,0,1,14.22,6h88.61a9.86,9.86,0,0,1,9.85,9.84Z"/><rect class="cls-1" x="32.32" y="124.09" width="44.98" height="6"/><rect class="cls-1" x="21.55" y="111.73" width="66.53" height="6"/></g></g></svg>