<svg xmlns="http://www.w3.org/2000/svg" viewBox="0 0 101.92 152.71"><defs><style>.cls-1{fill:#fff;}</style></defs><title>surf</title><g id="Слой_2" data-name="Слой 2"><g id="Слой_1-2" data-name="Слой 1"><path class="cls-1" d="M32.09,114.91a3.56,3.56,0,0,0-3.57,3.56V129a3.57,3.57,0,0,0,7.14,0V118.47a3.56,3.56,0,0,0-3.57-3.56"/><path class="cls-1" d="M101.91,81.22v0c-.08-49.86-28.2-79-29.4-80.18a3.69,3.69,0,0,0-5.09,0C67,1.43,58.69,10,51,25.61,43.37,10.27,35.12,1.66,34.48,1A3.67,3.67,0,0,0,29.4,1C28.2,2.24,0,31.42,0,81.44c0,27.36,5.88,53.8,8.48,64.13H5.93a3.57,3.57,0,0,0,0,7.14h90.4a3.57,3.57,0,1,0,0-7.14H93.44c2.59-10.33,8.48-36.77,8.48-64.13,0-.08,0-.14,0-.22M63.63,73.88,92.58,58.67a119.39,119.39,0,0,1,2.14,20.59L63.44,94.85c.29-4.4.45-8.89.45-13.41,0-2.59-.11-5.08-.26-7.56M70,9A113.92,113.92,0,0,1,91,51.47l-28,14.71a125,125,0,0,0-8.07-31.94A109.62,109.62,0,0,1,70,9M7.14,81.44C7.14,43.11,25.16,17.31,32,9,38.74,17.28,56.76,43,56.76,81.44c0,27.91-6.55,55.69-8.72,64.13H15.85c-2.17-8.44-8.71-36.18-8.71-64.13m48.27,64.13a301.86,301.86,0,0,0,7.35-42.41L94.69,87.25c-.8,25.87-6.6,50.46-8.63,58.32Z"/></g></g></svg>